<svg width="135" height="28" viewBox="0 0 135 28" fill="none" xmlns="http://www.w3.org/2000/svg">
<path d="M128.885 17.5931L126.024 15.9134C125.895 15.8375 125.734 15.8375 125.604 15.9134L122.743 17.5931C122.614 17.6689 122.533 17.8103 122.533 17.9627V21.3221C122.533 21.4738 122.614 21.6152 122.743 21.6918L125.604 23.3715C125.668 23.4091 125.74 23.4282 125.814 23.4282C125.888 23.4282 125.961 23.4083 126.024 23.3715L128.885 21.6918C129.015 21.6159 129.095 21.4746 129.095 21.3221V17.9627C129.095 17.8111 129.015 17.6697 128.885 17.5931H128.885ZM125.879 19.434C125.839 19.4576 125.789 19.4576 125.749 19.434L122.968 17.8015L125.749 16.1689C125.788 16.1461 125.84 16.1461 125.879 16.1689L128.66 17.8015L125.879 19.434ZM125.604 19.6888C125.625 19.7006 125.646 19.7109 125.67 19.719V23.0681L122.888 21.4363C122.848 21.4127 122.823 21.3693 122.823 21.3221V18.0563L125.604 19.6888Z" fill="#E3E3E3"/>
<path d="M126.085 19.114L128.935 17.4843C129.063 17.411 129.143 17.273 129.143 17.1244L129.136 13.8417C129.136 13.6931 129.056 13.5545 128.926 13.4795L126.07 11.8265C125.941 11.7518 125.781 11.7513 125.651 11.8249L122.801 13.4545C122.738 13.4907 122.686 13.5435 122.649 13.6069C122.612 13.6703 122.593 13.7422 122.593 13.8151L122.6 17.0978C122.6 17.2464 122.68 17.3849 122.81 17.46L125.666 19.113C125.795 19.1876 125.955 19.1882 126.085 19.1146L126.085 19.114ZM126.013 15.6276C126.013 15.5818 126.038 15.5389 126.078 15.5163L128.848 13.9319L128.854 17.123C128.854 17.1678 128.828 17.2119 128.789 17.2343L126.02 18.8187L126.013 15.6276ZM125.933 15.2666C125.913 15.2782 125.893 15.2918 125.875 15.3077L123.027 13.6598L125.796 12.0749C125.836 12.0523 125.886 12.052 125.926 12.0752L128.703 13.6822L125.933 15.2666Z" fill="#E3E3E3"/>
<path d="M126.149 11.8116L126.122 15.0942C126.121 15.2422 126.2 15.3807 126.328 15.4554L129.167 17.1027C129.296 17.1774 129.456 17.1779 129.586 17.1037L132.453 15.4683C132.582 15.3945 132.663 15.2564 132.665 15.1075L132.692 11.8249C132.693 11.7517 132.674 11.68 132.637 11.6163C132.601 11.5527 132.549 11.5 132.486 11.463L129.646 9.81578C129.518 9.74102 129.358 9.7406 129.228 9.8148L126.361 11.4501C126.232 11.524 126.15 11.662 126.149 11.811L126.149 11.8116ZM129.197 13.5052C129.237 13.528 129.262 13.571 129.261 13.6168L129.235 16.8078L126.475 15.2063C126.436 15.1837 126.411 15.1394 126.411 15.0946L126.437 11.9036L129.197 13.5052ZM129.55 13.6176C129.55 13.5944 129.548 13.5706 129.543 13.5467L132.401 11.9164L132.376 15.1071C132.375 15.1529 132.351 15.1958 132.31 15.2188L129.524 16.8086L129.55 13.6176Z" fill="#E3E3E3"/>
<path d="M113.39 23.734C111.847 23.734 110.516 23.4354 109.395 22.8383C108.281 22.2348 107.423 21.3768 106.821 20.2643C106.226 19.1454 105.928 17.8159 105.928 16.2759C105.928 14.7799 106.229 13.4725 106.831 12.3536C107.433 11.2285 108.281 10.3547 109.376 9.73245C110.471 9.10387 111.761 8.78958 113.246 8.78958C114.296 8.78958 115.257 8.94987 116.128 9.27044C116.999 9.59102 117.751 10.0656 118.385 10.6942C119.019 11.3227 119.512 12.099 119.864 13.023C120.216 13.9408 120.392 14.9936 120.392 16.1816V17.3319H107.57V14.6542H116.022C116.016 14.1639 115.897 13.7271 115.667 13.3436C115.436 12.9602 115.119 12.6616 114.716 12.4479C114.319 12.2279 113.861 12.1179 113.342 12.1179C112.817 12.1179 112.347 12.2342 111.931 12.4668C111.514 12.693 111.185 13.0042 110.941 13.4002C110.698 13.7899 110.57 14.2331 110.557 14.7296V17.4545C110.557 18.0454 110.676 18.564 110.913 19.0102C111.149 19.4502 111.486 19.7928 111.921 20.038C112.356 20.2831 112.875 20.4057 113.477 20.4057C113.893 20.4057 114.271 20.3491 114.61 20.236C114.95 20.1228 115.241 19.9563 115.484 19.7362C115.728 19.5162 115.91 19.246 116.032 18.9254L120.344 19.048C120.165 19.9971 119.771 20.8237 119.163 21.5277C118.561 22.2254 117.77 22.7691 116.79 23.1589C115.811 23.5423 114.677 23.734 113.39 23.734Z" fill="#E3E3E3"/>
<path d="M95.1974 8.97815L97.6273 13.749L100.144 8.97815H104.879L100.758 16.2194L105.032 23.4606H100.336L97.6273 18.6519L94.9861 23.4606H90.2223L94.5058 16.2194L90.4336 8.97815H95.1974Z" fill="#E3E3E3"/>
<path d="M79.5134 23.7057C78.5721 23.7057 77.7365 23.5517 77.0066 23.2437C76.2831 22.9294 75.71 22.458 75.2874 21.8294C74.8712 21.1945 74.6631 20.3994 74.6631 19.444C74.6631 18.6394 74.8072 17.9605 75.0953 17.4074C75.3835 16.8542 75.7805 16.4048 76.2863 16.0591C76.7921 15.7134 77.3748 15.4525 78.0343 15.2765C78.6938 15.0942 79.3981 14.9716 80.1472 14.9088C80.986 14.8333 81.6615 14.7548 82.1738 14.6731C82.686 14.5851 83.0574 14.4625 83.2879 14.3053C83.5248 14.1419 83.6432 13.9125 83.6432 13.6171V13.5699C83.6432 13.0859 83.4736 12.7119 83.1342 12.4479C82.7949 12.1839 82.337 12.0519 81.7608 12.0519C81.1397 12.0519 80.6403 12.1839 80.2625 12.4479C79.8847 12.7119 79.6446 13.0765 79.5422 13.5416L75.2106 13.3908C75.3387 12.5108 75.6684 11.725 76.1998 11.0336C76.7377 10.3359 77.474 9.78902 78.4089 9.39301C79.3501 8.99073 80.4802 8.78958 81.7992 8.78958C82.7404 8.78958 83.608 8.89958 84.402 9.11958C85.196 9.3333 85.8875 9.64759 86.4765 10.0624C87.0656 10.471 87.5202 10.9739 87.8404 11.571C88.1669 12.1682 88.3302 12.8502 88.3302 13.6171V23.4606H83.9122V21.4428H83.7969C83.5344 21.9331 83.1982 22.348 82.7885 22.6874C82.3851 23.0268 81.9081 23.2814 81.3574 23.4511C80.8132 23.6209 80.1985 23.7057 79.5134 23.7057ZM80.9636 20.6885C81.4695 20.6885 81.9241 20.588 82.3274 20.3868C82.7372 20.1857 83.0638 19.9091 83.3071 19.5571C83.5504 19.1988 83.6721 18.784 83.6721 18.3125V16.9359C83.5376 17.0051 83.3743 17.0679 83.1822 17.1245C82.9966 17.1811 82.7917 17.2345 82.5676 17.2848C82.3435 17.3351 82.1129 17.3791 81.876 17.4168C81.6391 17.4545 81.4118 17.4891 81.1941 17.5205C80.7523 17.5897 80.3746 17.6965 80.0608 17.8411C79.7535 17.9857 79.5166 18.1742 79.3501 18.4068C79.19 18.6331 79.11 18.9034 79.11 19.2177C79.11 19.6954 79.2829 20.06 79.6286 20.3114C79.9808 20.5628 80.4258 20.6885 80.9636 20.6885Z" fill="#E3E3E3"/>
<path d="M61.3277 24.3396H52.9885V1.77869H61.3167C63.6154 1.77869 65.5946 2.23035 67.2544 3.13367C68.9215 4.02964 70.2067 5.3222 71.11 7.01133C72.0133 8.69312 72.465 10.7054 72.465 13.0481C72.465 15.3982 72.0133 17.4179 71.11 19.107C70.214 20.7961 68.9325 22.0924 67.2654 22.9957C65.5983 23.8917 63.6191 24.3396 61.3277 24.3396ZM58.4415 19.6909H61.1184C62.3816 19.6909 63.4501 19.4779 64.3241 19.0519C65.2054 18.6186 65.87 17.9173 66.318 16.9478C66.7733 15.9711 67.001 14.6712 67.001 13.0481C67.001 11.4251 66.7733 10.1326 66.318 9.17049C65.8627 8.20107 65.1907 7.50338 64.3021 7.07743C63.4208 6.64413 62.3338 6.42748 61.0413 6.42748H58.4415V19.6909Z" fill="#E3E3E3"/>
<path d="M40.8351 24.6481C39.1165 24.6481 37.5927 24.3543 36.2634 23.7668C34.9414 23.172 33.8986 22.3531 33.1348 21.3102C32.371 20.2674 31.9818 19.0666 31.9671 17.708H37.4531C37.4751 18.2 37.633 18.637 37.9268 19.0189C38.2206 19.3934 38.6208 19.6872 39.1276 19.9002C39.6343 20.1132 40.2108 20.2196 40.8571 20.2196C41.5034 20.2196 42.0725 20.1058 42.5646 19.8781C43.064 19.6431 43.4532 19.3237 43.7323 18.9197C44.0114 18.5085 44.1472 18.0385 44.1399 17.5097C44.1472 16.9809 43.9967 16.5109 43.6882 16.0996C43.3798 15.6884 42.9428 15.3689 42.3773 15.1412C41.8192 14.9136 41.1582 14.7997 40.3944 14.7997H38.2022V10.9221H40.3944C41.0627 10.9221 41.6502 10.8119 42.157 10.5916C42.6711 10.3712 43.0713 10.0628 43.3577 9.66622C43.6442 9.2623 43.7837 8.79962 43.7764 8.27819C43.7837 7.77145 43.6625 7.32714 43.4128 6.94524C43.1705 6.55601 42.829 6.2549 42.3883 6.04193C41.955 5.82895 41.452 5.72246 40.8791 5.72246C40.2769 5.72246 39.7298 5.82895 39.2377 6.04193C38.753 6.2549 38.3675 6.55601 38.081 6.94524C37.7946 7.33448 37.6441 7.78614 37.6294 8.30022H32.4188C32.4335 6.95626 32.808 5.77387 33.5424 4.75304C34.2768 3.72487 35.2756 2.9207 36.5388 2.34052C37.8093 1.76034 39.2561 1.47025 40.8791 1.47025C42.4948 1.47025 43.9159 1.75299 45.1424 2.31848C46.3688 2.88398 47.3235 3.6551 48.0065 4.63187C48.6895 5.60128 49.031 6.69922 49.031 7.92568C49.0384 9.1962 48.6234 10.2427 47.7862 11.0653C46.9563 11.8878 45.8878 12.3945 44.5805 12.5855V12.7617C46.3284 12.9674 47.6467 13.5329 48.5353 14.4582C49.4313 15.3836 49.8756 16.5403 49.8683 17.9283C49.8683 19.2355 49.4827 20.3959 48.7116 21.4094C47.9478 22.4155 46.8829 23.2087 45.5169 23.7889C44.1582 24.3617 42.5976 24.6481 40.8351 24.6481Z" fill="#E3E3E3"/>
<path d="M12.4639 10.7861C14.1729 7.33823 16.2007 4.05565 18.8291 1.2793C17.2404 0.616826 15.4976 0.250024 13.6689 0.25C12.8132 0.25 11.9763 0.332229 11.165 0.485352C9.4756 1.45638 7.97523 2.77581 6.7168 4.31934C6.18486 4.97184 5.69873 5.66172 5.25977 6.37793C7.7985 7.58934 10.2371 9.04164 12.4639 10.7861ZM4.34961 5.9541C4.82852 5.1617 5.35947 4.40133 5.94141 3.6875C6.59474 2.88613 7.31421 2.13906 8.09082 1.46191C6.1228 2.36265 4.41201 3.72644 3.09375 5.41211C3.51412 5.58732 3.93345 5.76656 4.34961 5.9541ZM20.5879 19.3584C22.8983 16.9519 24.5045 13.985 24.8584 10.7578C25.0435 9.06893 24.8864 7.29531 24.2969 5.47754C23.0929 3.91807 21.554 2.63046 19.7871 1.72363C17.0837 4.5082 15.0153 7.86297 13.2617 11.4336C15.2363 13.0824 17.0284 14.9729 18.5518 17.1455C19.1522 18.0018 19.7542 18.8168 20.3564 19.5918C20.4337 19.5141 20.5121 19.4374 20.5879 19.3584ZM2.77637 21.5078C0.630713 17.2325 1.30509 11.5482 3.84863 6.82812C3.39884 6.62654 2.94561 6.43333 2.49023 6.24609C1.07551 8.37196 0.250036 10.9238 0.25 13.6689C0.250026 16.595 1.18664 19.3026 2.77637 21.5078ZM6.49902 25.0127C7.6248 22.319 8.69066 19.4754 9.87695 16.582C10.5455 14.9514 11.25 13.3154 12.0156 11.708C9.78863 9.93917 7.33051 8.47038 4.75781 7.24805C2.18026 11.9896 1.64608 17.679 3.98828 21.6445C4.41783 22.3719 4.74479 23.1271 4.98047 23.8955C5.45877 24.3023 5.96643 24.6754 6.49902 25.0127ZM23.2695 23.042C25.6314 20.6232 27.0879 17.3165 27.0879 13.6689C27.0879 11.6671 26.6474 9.76873 25.8613 8.0625C25.9579 9.01234 25.9531 9.9489 25.8525 10.8662C25.4699 14.3568 23.7383 17.5201 21.3086 20.0508C21.2012 20.1626 21.0907 20.2714 20.9805 20.3809C21.7451 21.3303 22.5094 22.2161 23.2695 23.042ZM7.47754 25.2588C11.6284 25.2921 16.1941 23.3989 19.6309 20.2871C18.9969 19.4744 18.3632 18.6194 17.7324 17.7197C16.3136 15.6962 14.6495 13.9214 12.8125 12.3623C12.1002 13.8717 11.4375 15.4137 10.8027 16.9619C9.6581 19.7537 8.58539 22.5982 7.47754 25.2588ZM13.6689 27.0879C17.0724 27.0878 20.1793 25.8197 22.5449 23.7314C21.7825 22.9036 21.0172 22.0176 20.252 21.0703C17.0559 23.9429 12.891 25.8612 8.87402 26.2061C10.3631 26.7758 11.9796 27.0879 13.6689 27.0879Z" fill="#E9E9E9"/>
<path d="M12.4639 10.7861L12.6879 10.8972L12.5515 11.1723L12.3097 10.9829L12.4639 10.7861ZM18.8291 1.2793L18.9253 1.04856L19.2598 1.18802L19.0106 1.45117L18.8291 1.2793ZM13.6689 0.25V0H13.6689L13.6689 0.25ZM11.165 0.485352L11.0405 0.268602L11.0771 0.247532L11.1187 0.239689L11.165 0.485352ZM6.7168 4.31934L6.52303 4.16137L6.52303 4.16136L6.7168 4.31934ZM5.25977 6.37793L5.1521 6.60356L4.90154 6.484L5.04662 6.24729L5.25977 6.37793ZM4.34961 5.9541L4.56357 6.08341L4.44894 6.27308L4.2469 6.18203L4.34961 5.9541ZM5.94141 3.6875L5.74764 3.52954L5.74764 3.52953L5.94141 3.6875ZM8.09082 1.46191L7.98678 1.23459L8.25512 1.65034L8.09082 1.46191ZM3.09375 5.41211L2.99757 5.64287L2.69465 5.51661L2.89682 5.2581L3.09375 5.41211ZM20.5879 19.3584L20.7682 19.5315L20.7682 19.5315L20.5879 19.3584ZM24.8584 10.7578L25.1069 10.7851L25.1069 10.7851L24.8584 10.7578ZM24.2969 5.47754L24.4948 5.32477L24.5213 5.35913L24.5347 5.40042L24.2969 5.47754ZM19.7871 1.72363L19.6077 1.54949L19.7366 1.41672L19.9013 1.50122L19.7871 1.72363ZM13.2617 11.4336L13.1015 11.6255L12.9508 11.4996L13.0373 11.3234L13.2617 11.4336ZM18.5518 17.1455L18.7565 17.002V17.002L18.5518 17.1455ZM20.3564 19.5918L20.5337 19.7681L20.3334 19.9696L20.159 19.7452L20.3564 19.5918ZM2.77637 21.5078L2.99981 21.3957L2.57357 21.654L2.77637 21.5078ZM3.84863 6.82812L3.95088 6.59999L4.19629 6.70998L4.06871 6.94672L3.84863 6.82812ZM2.49023 6.24609L2.28211 6.10759L2.39569 5.93691L2.5853 6.01488L2.49023 6.24609ZM0.25 13.6689L0 13.6689V13.6689L0.25 13.6689ZM6.49902 25.0127L6.72969 25.1091L6.61548 25.3824L6.36525 25.2239L6.49902 25.0127ZM9.87695 16.582L9.64564 16.4872V16.4872L9.87695 16.582ZM12.0156 11.708L12.1711 11.5122L12.3269 11.6359L12.2413 11.8155L12.0156 11.708ZM4.75781 7.24805L4.53817 7.12865L4.65125 6.92063L4.8651 7.02224L4.75781 7.24805ZM3.98828 21.6445L4.20354 21.5174L4.20355 21.5174L3.98828 21.6445ZM4.98047 23.8955L4.81851 24.086L4.76287 24.0386L4.74146 23.9688L4.98047 23.8955ZM23.2695 23.042L23.4484 23.2167L23.2642 23.4053L23.0856 23.2113L23.2695 23.042ZM27.0879 13.6689L27.3379 13.6689V13.6689L27.0879 13.6689ZM25.8613 8.0625L25.6126 8.08779L26.0884 7.95789L25.8613 8.0625ZM25.8525 10.8662L26.1011 10.8934L26.101 10.8935L25.8525 10.8662ZM21.3086 20.0508L21.4889 20.2239V20.2239L21.3086 20.0508ZM20.9805 20.3809L20.7858 20.5377L20.6445 20.3622L20.8043 20.2035L20.9805 20.3809ZM7.47754 25.2588L7.47553 25.5088L7.10388 25.5058L7.24675 25.1627L7.47754 25.2588ZM19.6309 20.2871L19.828 20.1333L19.9709 20.3165L19.7987 20.4724L19.6309 20.2871ZM17.7324 17.7197L17.9371 17.5762L17.9371 17.5762L17.7324 17.7197ZM12.8125 12.3623L12.5864 12.2556L12.7256 11.9607L12.9743 12.1717L12.8125 12.3623ZM10.8027 16.9619L10.5714 16.8671V16.8671L10.8027 16.9619ZM13.6689 27.0879L13.6689 27.3379H13.6689V27.0879ZM22.5449 23.7314L22.7288 23.5621L22.9018 23.7499L22.7104 23.9189L22.5449 23.7314ZM20.252 21.0703L20.0848 20.8844L20.2808 20.7082L20.4464 20.9132L20.252 21.0703ZM8.87402 26.2061L8.78468 26.4395L8.85264 25.957L8.87402 26.2061ZM12.4639 10.7861L12.2399 10.6751C13.9553 7.21429 15.9961 3.90812 18.6476 1.10742L18.8291 1.2793L19.0106 1.45117C16.4053 4.20318 14.3905 7.46217 12.6879 10.8972L12.4639 10.7861ZM18.8291 1.2793L18.7329 1.51004C17.1741 0.860016 15.4639 0.500023 13.6689 0.5L13.6689 0.25L13.6689 0C15.5313 2.47955e-05 17.3068 0.373636 18.9253 1.04856L18.8291 1.2793ZM13.6689 0.25V0.5C12.8292 0.5 12.0079 0.580683 11.2114 0.731014L11.165 0.485352L11.1187 0.239689C11.9447 0.0837746 12.7971 0 13.6689 0V0.25ZM11.165 0.485352L11.2896 0.702101C9.6294 1.65633 8.15184 2.95482 6.91056 4.47731L6.7168 4.31934L6.52303 4.16136C7.79863 2.59679 9.3218 1.25643 11.0405 0.268602L11.165 0.485352ZM6.7168 4.31934L6.91057 4.4773C6.38601 5.12076 5.90631 5.80147 5.47292 6.50857L5.25977 6.37793L5.04662 6.24729C5.49116 5.52198 5.98371 4.82293 6.52303 4.16137L6.7168 4.31934ZM5.25977 6.37793L5.36743 6.1523C7.91992 7.37027 10.3746 8.83181 12.618 10.5893L12.4639 10.7861L12.3097 10.9829C10.0995 9.25146 7.67709 7.80841 5.1521 6.60356L5.25977 6.37793ZM4.34961 5.9541L4.13565 5.82479C4.62022 5.02302 5.15785 4.253 5.74764 3.52954L5.94141 3.6875L6.13518 3.84546C5.56109 4.54967 5.03681 5.30038 4.56357 6.08341L4.34961 5.9541ZM5.94141 3.6875L5.74764 3.52953C6.40966 2.71751 7.13894 1.9602 7.92652 1.27348L8.09082 1.46191L8.25512 1.65034C7.48948 2.31793 6.77982 3.05476 6.13517 3.84547L5.94141 3.6875ZM8.09082 1.46191L8.19486 1.68924C6.26378 2.57306 4.58467 3.91147 3.29068 5.56612L3.09375 5.41211L2.89682 5.2581C4.23935 3.5414 5.98181 2.15224 7.98678 1.23459L8.09082 1.46191ZM3.09375 5.41211L3.18993 5.18135C3.61162 5.35711 4.03328 5.53734 4.45232 5.72618L4.34961 5.9541L4.2469 6.18203C3.83361 5.99579 3.41661 5.81752 2.99757 5.64287L3.09375 5.41211ZM20.5879 19.3584L20.4076 19.1853C22.6882 16.8098 24.2632 13.892 24.6099 10.7306L24.8584 10.7578L25.1069 10.7851C24.7458 14.078 23.1084 17.094 20.7682 19.5315L20.5879 19.3584ZM24.8584 10.7578L24.6099 10.7306C24.7912 9.07661 24.6376 7.33858 24.0591 5.55466L24.2969 5.47754L24.5347 5.40042C25.1352 7.25205 25.2959 9.06125 25.1069 10.7851L24.8584 10.7578ZM24.2969 5.47754L24.099 5.63031C22.9173 4.09965 21.4068 2.83593 19.673 1.94605L19.7871 1.72363L19.9013 1.50122C21.7011 2.42499 23.2686 3.7365 24.4948 5.32477L24.2969 5.47754ZM19.7871 1.72363L19.9665 1.89778C17.288 4.65661 15.2333 7.98614 13.4861 11.5438L13.2617 11.4336L13.0373 11.3234C14.7972 7.73979 16.8793 4.35979 19.6077 1.54949L19.7871 1.72363ZM13.2617 11.4336L13.422 11.2417C15.4116 12.9031 17.2192 14.8096 18.7565 17.002L18.5518 17.1455L18.3471 17.289C16.8376 15.1363 15.0609 13.2617 13.1015 11.6255L13.2617 11.4336ZM18.5518 17.1455L18.7565 17.002C19.3546 17.855 19.9541 18.6667 20.5538 19.4384L20.3564 19.5918L20.159 19.7452C19.5542 18.9669 18.9498 18.1486 18.3471 17.289L18.5518 17.1455ZM20.3564 19.5918L20.1792 19.4155C20.2596 19.3346 20.3337 19.2622 20.4076 19.1853L20.5879 19.3584L20.7682 19.5315C20.6905 19.6125 20.6077 19.6936 20.5337 19.7681L20.3564 19.5918ZM2.77637 21.5078L2.55293 21.6199C0.359568 17.2496 1.05985 11.4763 3.62855 6.70953L3.84863 6.82812L4.06871 6.94672C1.55034 11.6201 0.901858 17.2154 2.99981 21.3957L2.77637 21.5078ZM3.84863 6.82812L3.74639 7.05626C3.29937 6.85592 2.84857 6.66374 2.39517 6.47731L2.49023 6.24609L2.5853 6.01488C3.04264 6.20292 3.49831 6.39716 3.95088 6.59999L3.84863 6.82812ZM2.49023 6.24609L2.69836 6.3846C1.31005 8.47077 0.500036 10.9747 0.5 13.6689L0.25 13.6689L0 13.6689C3.70145e-05 10.8729 0.840973 8.27314 2.28211 6.10759L2.49023 6.24609ZM0.25 13.6689L0.5 13.6689C0.500026 16.5408 1.4191 19.1976 2.97916 21.3616L2.77637 21.5078L2.57357 21.654C0.954171 19.4077 2.65241e-05 16.6492 0 13.6689L0.25 13.6689ZM6.49902 25.0127L6.26836 24.9163C7.39724 22.2151 8.45199 19.3985 9.64564 16.4872L9.87695 16.582L10.1083 16.6769C8.92933 19.5523 7.85237 22.4228 6.72969 25.1091L6.49902 25.0127ZM9.87695 16.582L9.64564 16.4872C10.3153 14.8539 11.0217 13.2135 11.7899 11.6005L12.0156 11.708L12.2413 11.8155C11.4784 13.4174 10.7758 15.0488 10.1083 16.6769L9.87695 16.582ZM12.0156 11.708L11.8601 11.9038C9.65041 10.1486 7.20907 8.68946 4.65053 7.47386L4.75781 7.24805L4.8651 7.02224C7.45196 8.2513 9.92686 9.72969 12.1711 11.5122L12.0156 11.708ZM4.75781 7.24805L4.97746 7.36745C2.42568 12.0616 1.92095 17.6528 4.20354 21.5174L3.98828 21.6445L3.77302 21.7717C1.37121 17.7052 1.93483 11.9176 4.53817 7.12865L4.75781 7.24805ZM3.98828 21.6445L4.20355 21.5174C4.64344 22.2623 4.97823 23.0356 5.21948 23.8222L4.98047 23.8955L4.74146 23.9688C4.51135 23.2185 4.19222 22.4815 3.77302 21.7717L3.98828 21.6445ZM4.98047 23.8955L5.14243 23.7051C5.6117 24.1041 6.10993 24.4703 6.63279 24.8015L6.49902 25.0127L6.36525 25.2239C5.82294 24.8804 5.30584 24.5004 4.81851 24.086L4.98047 23.8955ZM23.2695 23.042L23.0907 22.8673C25.4088 20.4933 26.8379 17.2486 26.8379 13.6689L27.0879 13.6689L27.3379 13.6689C27.3379 17.3845 25.8539 20.7531 23.4484 23.2167L23.2695 23.042ZM27.0879 13.6689L26.8379 13.6689C26.8379 11.7042 26.4056 9.84138 25.6343 8.16711L25.8613 8.0625L26.0884 7.95789C26.8892 9.69607 27.3379 11.6301 27.3379 13.6689L27.0879 13.6689ZM25.8613 8.0625L26.11 8.03721C26.2084 9.00443 26.2035 9.95859 26.1011 10.8934L25.8525 10.8662L25.604 10.839C25.7026 9.9392 25.7074 9.02025 25.6126 8.08779L25.8613 8.0625ZM25.8525 10.8662L26.101 10.8935C25.7112 14.4499 23.9484 17.6623 21.4889 20.2239L21.3086 20.0508L21.1283 19.8776C23.5282 17.3779 25.2286 14.2637 25.604 10.839L25.8525 10.8662ZM21.3086 20.0508L21.4889 20.2239C21.379 20.3385 21.2656 20.45 21.1567 20.5582L20.9805 20.3809L20.8043 20.2035C20.9157 20.0928 21.0235 19.9867 21.1283 19.8776L21.3086 20.0508ZM20.9805 20.3809L21.1752 20.224C21.9365 21.1692 22.6971 22.0509 23.4535 22.8727L23.2695 23.042L23.0856 23.2113C22.3217 22.3813 21.5538 21.4913 20.7858 20.5377L20.9805 20.3809ZM7.47754 25.2588L7.47955 25.0088C11.5588 25.0416 16.0658 23.1779 19.4631 20.1018L19.6309 20.2871L19.7987 20.4724C16.3225 23.6199 11.698 25.5427 7.47553 25.5088L7.47754 25.2588ZM19.6309 20.2871L19.4337 20.4409C18.7972 19.6248 18.161 18.7664 17.5277 17.8632L17.7324 17.7197L17.9371 17.5762C18.5655 18.4724 19.1967 19.324 19.828 20.1333L19.6309 20.2871ZM17.7324 17.7197L17.5277 17.8633C16.1223 15.8589 14.4731 14.0996 12.6507 12.5529L12.8125 12.3623L12.9743 12.1717C14.8259 13.7432 16.5049 15.5336 17.9371 17.5762L17.7324 17.7197ZM12.8125 12.3623L13.0386 12.469C12.3287 13.9732 11.6678 15.511 11.034 17.0568L10.8027 16.9619L10.5714 16.8671C11.2072 15.3165 11.8717 13.7701 12.5864 12.2556L12.8125 12.3623ZM10.8027 16.9619L11.034 17.0568C9.89708 19.8299 8.81249 22.7032 7.70833 25.3549L7.47754 25.2588L7.24675 25.1627C8.35829 22.4933 9.41913 19.6775 10.5714 16.8671L10.8027 16.9619ZM13.6689 27.0879L13.6689 26.8379C17.0091 26.8378 20.0577 25.5936 22.3795 23.544L22.5449 23.7314L22.7104 23.9189C20.3009 26.0459 17.1357 27.3378 13.6689 27.3379L13.6689 27.0879ZM22.5449 23.7314L22.361 23.9008C21.5949 23.0689 20.826 22.1788 20.0575 21.2274L20.252 21.0703L20.4464 20.9132C21.2084 21.8564 21.9702 22.7383 22.7288 23.5621L22.5449 23.7314ZM20.252 21.0703L20.4191 21.2562C17.1872 24.1611 12.9723 26.1051 8.89541 26.4551L8.87402 26.2061L8.85264 25.957C12.8096 25.6172 16.9246 23.7248 20.0848 20.8844L20.252 21.0703ZM8.87402 26.2061L8.96336 25.9726C10.4243 26.5316 12.0106 26.8379 13.6689 26.8379V27.0879V27.3379C11.9486 27.3379 10.3018 27.02 8.78468 26.4395L8.87402 26.2061Z" fill="#383838"/>
<path d="M10.0808 4.89667C10.956 4.39138 12.0752 4.69124 12.5804 5.56644" stroke="#383838" stroke-width="0.5" stroke-linecap="round"/>
<path d="M18.9549 9.40007C19.9076 9.06292 20.9532 9.5619 21.2904 10.5146" stroke="#383838" stroke-width="0.5" stroke-linecap="round"/>
</svg>
