<svg width="111" height="23" viewBox="0 0 111 23" fill="none" xmlns="http://www.w3.org/2000/svg">
<path d="M24.5708 3.99325L13.1307 0.108093V6.69762C12.8555 7.04043 12.2658 7.11661 11.8727 6.69762V0.108093L0.62915 3.99325L12.5803 8.03076L24.5708 3.99325Z" fill="#BDBDBD"/>
<path d="M11.9512 6.66735C12.3025 7.01903 12.8045 6.95403 13.0519 6.67017V0.000595153L24.8092 3.99347L12.5801 8.11133L0.392578 3.99399L11.9512 0V6.66735ZM13.2092 6.72366L13.1926 6.74434C12.8879 7.12394 12.2407 7.20325 11.8143 6.74881L11.7939 6.72701V0.215966L0.865334 3.99228L12.5803 7.94997L24.3321 3.9928L13.2092 0.215371V6.72366Z" fill="#414143"/>
<path d="M13.1305 23V13.4775L24.5706 18.2768L13.1305 23Z" fill="#7B7B89"/>
<path d="M12.0691 23V13.4775L0.628978 18.2768L12.0691 23Z" fill="#7B7B89"/>
<path d="M13.0519 12.2587V8.86875L25.0817 4.83124V17.4009L13.0519 12.2587Z" fill="#BDBDBD"/>
<path d="M12.0298 12.2968V8.90678L-2.66536e-05 4.86926V17.4389L12.0298 12.2968Z" fill="#7B7B89"/>
<path d="M103.28 13.6935C103.522 14.1577 103.792 14.5591 104.092 14.8978C104.391 15.224 104.719 15.4749 105.076 15.6505C105.433 15.8262 105.801 15.914 106.181 15.914C106.55 15.914 106.855 15.8262 107.097 15.6505C107.339 15.4624 107.459 15.1927 107.459 14.8414C107.459 14.5905 107.39 14.3835 107.252 14.2204C107.114 14.0448 106.872 13.8692 106.527 13.6935C106.193 13.5179 105.721 13.3047 105.111 13.0538C104.811 12.9283 104.477 12.7652 104.109 12.5645C103.74 12.3513 103.383 12.0815 103.038 11.7554C102.704 11.4292 102.422 11.0278 102.192 10.5511C101.973 10.0744 101.864 9.50986 101.864 8.85753C101.864 8.02957 102.065 7.33333 102.468 6.76882C102.871 6.19176 103.406 5.75269 104.074 5.45161C104.742 5.15054 105.485 5 106.302 5C107.154 5 107.891 5.15054 108.513 5.45161C109.135 5.74014 109.647 6.11022 110.05 6.56183C110.453 7.0009 110.764 7.44624 110.983 7.89785L108.461 9.42204C108.288 9.10842 108.087 8.85125 107.857 8.65054C107.638 8.43728 107.402 8.27419 107.149 8.16129C106.895 8.04839 106.636 7.99194 106.371 7.99194C106.037 7.99194 105.773 8.0672 105.577 8.21774C105.381 8.36828 105.283 8.569 105.283 8.81989C105.283 9.10842 105.393 9.35305 105.611 9.55376C105.842 9.74194 106.153 9.92383 106.544 10.0995C106.947 10.2625 107.408 10.4444 107.926 10.6452C108.375 10.8208 108.784 11.0341 109.152 11.2849C109.532 11.5233 109.86 11.8118 110.136 12.1505C110.413 12.4767 110.626 12.853 110.775 13.2796C110.925 13.7061 111 14.1828 111 14.7097C111 15.4122 110.868 16.0332 110.603 16.5726C110.349 17.112 109.998 17.5636 109.549 17.9274C109.112 18.2787 108.611 18.5421 108.047 18.7177C107.482 18.9059 106.907 19 106.32 19C105.491 19 104.719 18.8432 104.005 18.5296C103.303 18.2285 102.693 17.8145 102.174 17.2876C101.656 16.7482 101.265 16.1523 101 15.5L103.28 13.6935Z" fill="#7B7B89"/>
<path d="M91.7216 18V15.0843H99V18H91.7216ZM91.7216 7.91571V5H99V7.91571H91.7216ZM91.7216 12.6514V9.82857H98.5876V12.6514H91.7216ZM89 5H92.835V18H89V5Z" fill="#7B7B89"/>
<path d="M83.0097 5H87.7087L83.3592 11.37L88 18H83.301L81.0291 14.0071L78.6796 18H74L78.7379 11.37L74.4854 5H79.165L81.068 8.45429L83.0097 5Z" fill="#7B7B89"/>
<path d="M63.633 15.8822L63.7431 13.2021H70.3303L70.422 15.8822H63.633ZM66.9908 10.2597L65.3028 14.1954L65.5229 15.0013L64.0367 18H60L66.9908 4L74 18H69.9633L68.4954 15.1325L68.6972 14.1954L66.9908 10.2597Z" fill="#7B7B89"/>
<path d="M48 5H51.7395V18H48V5ZM52.8744 18H50.4558V14.8429H52.7256C53.1597 14.8429 53.5814 14.7995 53.9907 14.7129C54.4124 14.6138 54.7907 14.4467 55.1256 14.2114C55.4605 13.9638 55.7271 13.6233 55.9256 13.19C56.1364 12.7443 56.2419 12.181 56.2419 11.5C56.2419 10.819 56.1364 10.2619 55.9256 9.82857C55.7271 9.38286 55.4605 9.04238 55.1256 8.80714C54.7907 8.55952 54.4124 8.39238 53.9907 8.30571C53.5814 8.20667 53.1597 8.15714 52.7256 8.15714H50.4558V5H52.8744C54.3504 5 55.6155 5.26619 56.6698 5.79857C57.7364 6.31857 58.555 7.06143 59.1256 8.02714C59.7085 8.99286 60 10.1505 60 11.5C60 12.8371 59.7085 13.9948 59.1256 14.9729C58.555 15.9386 57.7364 16.6876 56.6698 17.22C55.6155 17.74 54.3504 18 52.8744 18Z" fill="#7B7B89"/>
<path d="M40.1289 11.2104V9.64208C40.4541 9.64208 40.7503 9.59745 41.0174 9.5082C41.2846 9.41894 41.5168 9.29781 41.7143 9.14481C41.9117 8.9918 42.0627 8.81967 42.1672 8.62842C42.2718 8.42441 42.324 8.21403 42.324 7.99727C42.324 7.78051 42.2776 7.58925 42.1847 7.4235C42.0918 7.25774 41.9524 7.13024 41.7666 7.04098C41.5923 6.95173 41.3659 6.9071 41.0871 6.9071C40.6574 6.9071 40.3031 7.04098 40.0244 7.30874C39.7573 7.5765 39.6237 7.92714 39.6237 8.36065H36.5226C36.5226 7.54463 36.7085 6.81148 37.0801 6.1612C37.4634 5.49818 37.9977 4.97541 38.6829 4.5929C39.3682 4.19763 40.1696 4 41.0871 4C42.0627 4 42.8873 4.16576 43.561 4.49727C44.2462 4.82878 44.7631 5.28142 45.1115 5.85519C45.4715 6.41621 45.6516 7.04736 45.6516 7.74863C45.6516 8.56466 45.4019 9.22769 44.9024 9.7377C44.4146 10.2477 43.7526 10.6239 42.9164 10.8661C42.0801 11.0956 41.151 11.2104 40.1289 11.2104ZM40.9303 18C40.1521 18 39.4553 17.8725 38.8397 17.6175C38.2358 17.3497 37.7189 16.9863 37.2892 16.5273C36.8711 16.0683 36.5517 15.5519 36.331 14.9781C36.1103 14.4044 36 13.8115 36 13.1995H39.3275C39.3275 13.633 39.4088 13.99 39.5714 14.2705C39.734 14.551 39.9489 14.755 40.216 14.8825C40.4948 15.01 40.7793 15.0738 41.0697 15.0738C41.3833 15.0738 41.6562 15.0291 41.8885 14.9399C42.1324 14.8506 42.324 14.6976 42.4634 14.4809C42.6028 14.2514 42.6725 13.9645 42.6725 13.6202C42.6725 13.3907 42.626 13.174 42.5331 12.9699C42.4402 12.7532 42.2892 12.5683 42.0801 12.4153C41.8827 12.2495 41.6214 12.122 41.2962 12.0328C40.9826 11.9435 40.5935 11.8989 40.1289 11.8989V10.1011C41 10.1011 41.7898 10.1712 42.4983 10.3115C43.2184 10.4517 43.8397 10.6812 44.3624 11C44.885 11.3188 45.2857 11.7204 45.5645 12.2049C45.8548 12.6894 46 13.276 46 13.9645C46 14.7423 45.8026 15.4372 45.4077 16.0492C45.0128 16.6612 44.4379 17.1393 43.6829 17.4836C42.928 17.8279 42.0105 18 40.9303 18Z" fill="#7B7B89"/>
</svg>
