<svg width="210" height="60" viewBox="0 0 210 60" fill="none" xmlns="http://www.w3.org/2000/svg">
<path d="M64.0975 10.4169L34.2537 0.281738V17.4718C33.5358 18.3661 31.9975 18.5649 30.9719 17.4718V0.281738L1.64087 10.4169L32.8179 20.9496L64.0975 10.4169Z" fill="#414143"/>
<path d="M31.1768 17.3931C32.0934 18.3105 33.4029 18.141 34.0484 17.4005V0.00155257L64.7197 10.4178L32.8175 21.16L1.02393 10.4191L31.1768 0V17.3931ZM34.4586 17.54L34.4154 17.594C33.6204 18.5842 31.9322 18.7911 30.8199 17.6056L30.7666 17.5488V0.563391L2.2572 10.4147L32.8179 20.7391L63.475 10.416L34.4586 0.561838V17.54Z" fill="#414143"/>
<path d="M34.2534 60V35.1588L64.0973 47.6788L34.2534 60Z" fill="#414143"/>
<path d="M31.4844 60V35.1588L1.64054 47.6788L31.4844 60Z" fill="#414143"/>
<path d="M34.0485 31.9791V23.1356L65.4306 12.603V45.3934L34.0485 31.9791Z" fill="#414143"/>
<path d="M31.3822 32.0786V23.2351L2.73903e-05 12.7025V45.4928L31.3822 32.0786Z" fill="#414143"/>
<path d="M194.771 33.0338C195.238 33.856 195.76 34.5671 196.338 35.1671C196.915 35.7449 197.549 36.1894 198.238 36.5005C198.927 36.8116 199.638 36.9672 200.371 36.9672C201.082 36.9672 201.671 36.8116 202.138 36.5005C202.604 36.1671 202.838 35.6894 202.838 35.0671C202.838 34.6227 202.704 34.256 202.438 33.9671C202.171 33.656 201.704 33.3449 201.038 33.0338C200.393 32.7227 199.482 32.3449 198.304 31.9004C197.726 31.6782 197.082 31.3893 196.371 31.0338C195.66 30.656 194.971 30.1782 194.304 29.6004C193.66 29.0226 193.115 28.3115 192.671 27.4671C192.249 26.6226 192.038 25.6226 192.038 24.467C192.038 23.0003 192.426 21.767 193.204 20.767C193.982 19.7447 195.015 18.967 196.304 18.4336C197.593 17.9003 199.027 17.6336 200.604 17.6336C202.249 17.6336 203.671 17.9003 204.871 18.4336C206.071 18.9447 207.06 19.6003 207.838 20.4003C208.616 21.1781 209.216 21.967 209.638 22.767L204.771 25.467C204.438 24.9115 204.049 24.4559 203.604 24.1003C203.182 23.7226 202.727 23.4337 202.238 23.2337C201.749 23.0337 201.249 22.9337 200.738 22.9337C200.093 22.9337 199.582 23.067 199.204 23.3337C198.826 23.6003 198.638 23.9559 198.638 24.4003C198.638 24.9115 198.849 25.3448 199.271 25.7004C199.715 26.0337 200.315 26.3559 201.071 26.667C201.849 26.9559 202.738 27.2782 203.738 27.6337C204.604 27.9448 205.393 28.3226 206.104 28.7671C206.838 29.1893 207.471 29.7004 208.004 30.3004C208.538 30.8782 208.949 31.5449 209.238 32.3004C209.527 33.056 209.671 33.9005 209.671 34.8338C209.671 36.0783 209.415 37.1783 208.904 38.1338C208.415 39.0894 207.738 39.8894 206.871 40.5339C206.027 41.1561 205.06 41.6228 203.971 41.9339C202.882 42.2672 201.771 42.4339 200.638 42.4339C199.038 42.4339 197.549 42.1561 196.171 41.6005C194.815 41.0672 193.638 40.3339 192.638 39.4005C191.638 38.4449 190.882 37.3894 190.371 36.2338L194.771 33.0338Z" fill="#414143"/>
<path d="M175.466 41.5672V36.3338H187.233V41.5672H175.466ZM175.466 23.467V18.2336H187.233V23.467H175.466ZM175.466 31.9671V26.9003H186.566V31.9671H175.466ZM171.066 18.2336H177.266V41.5672H171.066V18.2336Z" fill="#414143"/>
<path d="M160.046 18.2336H168.112L160.646 29.667L168.612 41.5672H160.546L156.646 34.4004L152.612 41.5672H144.579L152.712 29.667L145.412 18.2336H153.446L156.712 24.4337L160.046 18.2336Z" fill="#414143"/>
<path d="M125.784 37.8004L125.984 33.0337H137.951L138.117 37.8004H125.784ZM131.884 27.8003L128.817 34.8003L129.217 36.2337L126.517 41.5671H119.184L131.884 16.6668L144.617 41.5671H137.284L134.617 36.467L134.984 34.8003L131.884 27.8003Z" fill="#414143"/>
<path d="M97.7256 18.2336H104.426V41.5672H97.7256V18.2336ZM106.459 41.5672H102.126V35.9004H106.192C106.97 35.9004 107.726 35.8227 108.459 35.6671C109.215 35.4893 109.892 35.1893 110.492 34.7671C111.092 34.3227 111.57 33.7115 111.926 32.9337C112.304 32.1337 112.492 31.1226 112.492 29.9004C112.492 28.6781 112.304 27.6781 111.926 26.9003C111.57 26.1003 111.092 25.4892 110.492 25.067C109.892 24.6225 109.215 24.3225 108.459 24.167C107.726 23.9892 106.97 23.9003 106.192 23.9003H102.126V18.2336H106.459C109.103 18.2336 111.37 18.7114 113.259 19.6669C115.17 20.6003 116.637 21.9336 117.659 23.667C118.704 25.4003 119.226 27.4781 119.226 29.9004C119.226 32.3004 118.704 34.3782 117.659 36.1338C116.637 37.8671 115.17 39.2116 113.259 40.1672C111.37 41.1005 109.103 41.5672 106.459 41.5672Z" fill="#414143"/>
<path d="M83.2728 30.3337V27.6003C83.895 27.6003 84.4617 27.5226 84.9728 27.367C85.4839 27.2115 85.9284 27.0003 86.3061 26.7337C86.6839 26.467 86.9728 26.167 87.1728 25.8337C87.3728 25.4781 87.4728 25.1114 87.4728 24.7337C87.4728 24.3559 87.3839 24.0225 87.2061 23.7336C87.0284 23.4447 86.7617 23.2225 86.4061 23.067C86.0728 22.9114 85.6395 22.8336 85.1061 22.8336C84.2839 22.8336 83.6061 23.067 83.0728 23.5336C82.5616 24.0003 82.3061 24.6114 82.3061 25.367H76.3727C76.3727 23.9448 76.7283 22.667 77.4394 21.5336C78.1727 20.378 79.1949 19.4669 80.5061 18.8003C81.8172 18.1114 83.3505 17.7669 85.1061 17.7669C86.9728 17.7669 88.5506 18.0558 89.8395 18.6336C91.1506 19.2114 92.1395 20.0003 92.8062 21.0003C93.4951 21.9781 93.8396 23.0781 93.8396 24.3003C93.8396 25.7226 93.3618 26.8781 92.4062 27.767C91.4729 28.6559 90.2062 29.3115 88.6062 29.7337C87.0061 30.1337 85.2283 30.3337 83.2728 30.3337ZM84.8061 42.1672C83.3172 42.1672 81.9839 41.945 80.8061 41.5005C79.6505 41.0338 78.6616 40.4005 77.8394 39.6005C77.0394 38.8005 76.4282 37.9005 76.006 36.9005C75.5838 35.9004 75.3727 34.8671 75.3727 33.8004H81.7394C81.7394 34.556 81.895 35.1782 82.2061 35.6671C82.5172 36.156 82.9283 36.5116 83.4394 36.7338C83.9728 36.956 84.5172 37.0671 85.0728 37.0671C85.6728 37.0671 86.195 36.9893 86.6395 36.8338C87.1061 36.6782 87.4728 36.4116 87.7395 36.0338C88.0062 35.6338 88.1395 35.1338 88.1395 34.5338C88.1395 34.1338 88.0506 33.756 87.8728 33.4004C87.695 33.0226 87.4061 32.7004 87.0061 32.4337C86.6284 32.1448 86.1284 31.9226 85.5061 31.7671C84.9061 31.6115 84.1617 31.5337 83.2728 31.5337V28.4004C84.9395 28.4004 86.4506 28.5226 87.8062 28.767C89.1839 29.0115 90.3728 29.4115 91.3729 29.967C92.3729 30.5226 93.1395 31.2226 93.6729 32.0671C94.2284 32.9115 94.5062 33.9338 94.5062 35.1338C94.5062 36.4893 94.1284 37.7005 93.3729 38.7671C92.6173 39.8338 91.5173 40.6672 90.0728 41.2672C88.6284 41.8672 86.8728 42.1672 84.8061 42.1672Z" fill="#414143"/>
</svg>
