<svg width="66" height="60" viewBox="0 0 66 60" fill="none" xmlns="http://www.w3.org/2000/svg">
<path d="M64.0975 10.4169L34.2537 0.281738V17.4718C33.5358 18.3661 31.9975 18.5649 30.9719 17.4718V0.281738L1.64087 10.4169L32.8179 20.9496L64.0975 10.4169Z" fill="currentColor"/>
<path d="M31.1768 17.3931C32.0934 18.3105 33.4029 18.141 34.0484 17.4005V0.00155257L64.7197 10.4178L32.8175 21.16L1.02393 10.4191L31.1768 0V17.3931ZM34.4586 17.54L34.4154 17.594C33.6204 18.5842 31.9322 18.7911 30.8199 17.6056L30.7666 17.5488V0.563391L2.2572 10.4147L32.8179 20.7391L63.475 10.416L34.4586 0.561838V17.54Z" fill="currentColor"/>
<path d="M34.2534 60V35.1588L64.0973 47.6788L34.2534 60Z" fill="currentColor"/>
<path d="M31.4844 60V35.1588L1.64054 47.6788L31.4844 60Z" fill="currentColor"/>
<path d="M34.0485 31.9791V23.1356L65.4306 12.603V45.3934L34.0485 31.9791Z" fill="currentColor"/>
<path d="M31.3822 32.0786V23.2351L2.73903e-05 12.7025V45.4928L31.3822 32.0786Z" fill="currentColor"/>
</svg>
